<?xml version="1.0" encoding="utf-8"?>
<!-- Generator: Adobe Illustrator 17.0.0, SVG Export Plug-In . SVG Version: 6.00 Build 0)  -->
<!DOCTYPE svg PUBLIC "-//W3C//DTD SVG 1.1//EN" "http://www.w3.org/Graphics/SVG/1.1/DTD/svg11.dtd">
<svg version="1.1" id="Layer_1" xmlns="http://www.w3.org/2000/svg" xmlns:xlink="http://www.w3.org/1999/xlink" x="0px" y="0px"
	 width="595.28px" height="841.89px" viewBox="0 0 595.28 841.89" enable-background="new 0 0 595.28 841.89" xml:space="preserve">
<g>
	<g>
		<path d="M249.74,411.36c-1.12,0-2.02,0.4-2.7,1.19c-0.68,0.79-1.02,2.1-1.02,3.92c0,1.81,0.34,3.11,1.01,3.9
			c0.67,0.79,1.59,1.18,2.75,1.18c1.19,0,2.12-0.39,2.77-1.16c0.65-0.77,0.98-2.16,0.98-4.17c0-1.69-0.34-2.92-1.02-3.7
			C251.83,411.75,250.91,411.36,249.74,411.36z M305.63,418.57h3.92l-1.95-6.44L305.63,418.57z M325.07,418.57h3.92l-1.96-6.44
			L325.07,418.57z M377.09,433.23h3.41v-29.34H214v34.75h166.5v-1.78h-3.41c-0.3,0-0.54-0.24-0.54-0.54v-2.55
			C376.55,433.47,376.79,433.23,377.09,433.23z M223.04,436.27c0,0.3-0.23,0.54-0.52,0.54H218c-0.29,0-0.52-0.24-0.52-0.54v-2.55
			c0-0.3,0.23-0.54,0.52-0.54h4.52c0.29,0,0.52,0.24,0.52,0.54V436.27z M229.62,425.41h-4.1l-3.49-13.67v13.67h-4.53v-17.92h7.3
			l2.78,10.91l2.79-10.91h7.27v17.92h-4.53v-13.67L229.62,425.41z M242.95,436.27c0,0.3-0.23,0.54-0.52,0.54h-4.52
			c-0.29,0-0.52-0.24-0.52-0.54v-2.55c0-0.3,0.23-0.54,0.52-0.54h4.52c0.29,0,0.52,0.24,0.52,0.54V436.27z M254.95,424.59
			c-1.33,0.75-2.99,1.12-4.98,1.12c-2.02,0-3.7-0.32-5.02-0.97c-1.32-0.64-2.4-1.66-3.22-3.05c-0.82-1.39-1.23-3.14-1.23-5.23
			c0-2.92,0.82-5.2,2.45-6.83c1.63-1.63,3.9-2.44,6.81-2.44c2.98,0,5.28,0.8,6.9,2.4c1.61,1.6,2.42,3.84,2.42,6.73
			c0,2.09-0.35,3.81-1.06,5.15C257.31,422.8,256.29,423.84,254.95,424.59z M262.86,436.27c0,0.3-0.23,0.54-0.52,0.54h-4.52
			c-0.29,0-0.52-0.24-0.52-0.54v-2.55c0-0.3,0.23-0.54,0.52-0.54h4.52c0.29,0,0.52,0.24,0.52,0.54V436.27z M267.28,415.56v9.84
			h-5.21v-17.92h5.17l6.72,9.89v-9.89h5.23v17.92h-5.23L267.28,415.56z M282.77,436.27c0,0.3-0.23,0.54-0.52,0.54h-4.52
			c-0.29,0-0.52-0.24-0.52-0.54v-2.55c0-0.3,0.23-0.54,0.52-0.54h4.52c0.29,0,0.52,0.24,0.52,0.54V436.27z M292.79,425.41h-5.53
			v-13.49h-5.66v-4.43h16.85v4.43h-5.66V425.41z M302.68,436.27c0,0.3-0.23,0.54-0.52,0.54h-4.52c-0.29,0-0.52-0.24-0.52-0.54v-2.55
			c0-0.3,0.23-0.54,0.52-0.54h4.52c0.29,0,0.52,0.24,0.52,0.54V436.27z M322.59,436.27c0,0.3-0.23,0.54-0.52,0.54h-4.52
			c-0.29,0-0.52-0.24-0.52-0.54v-2.55c0-0.3,0.23-0.54,0.52-0.54h4.52c0.29,0,0.52,0.24,0.52,0.54V436.27z M331.06,425.41l-0.9-2.96
			h-6.28l-0.9,2.96h-11.38l-0.9-2.96h-6.28l-0.9,2.96h-5.65l6.75-17.92h6.06l6.68,17.82l6.71-17.82h6.06l6.72,17.92H331.06z
			 M342.5,436.27c0,0.3-0.23,0.54-0.52,0.54h-4.52c-0.29,0-0.52-0.24-0.52-0.54v-2.55c0-0.3,0.23-0.54,0.52-0.54h4.52
			c0.29,0,0.52,0.24,0.52,0.54V436.27z M352.93,422.75c-0.63,0.97-1.52,1.71-2.66,2.21c-1.14,0.5-2.58,0.75-4.31,0.75
			c-3.05,0-5.16-0.59-6.33-1.76c-1.17-1.17-1.84-2.66-1.99-4.47l5.26-0.33c0.11,0.85,0.35,1.5,0.7,1.95
			c0.57,0.72,1.38,1.08,2.44,1.08c0.79,0,1.4-0.19,1.83-0.56c0.43-0.37,0.64-0.8,0.64-1.29c0-0.46-0.2-0.88-0.61-1.25
			c-0.4-0.37-1.35-0.71-2.83-1.04c-2.43-0.55-4.16-1.27-5.19-2.17c-1.04-0.9-1.56-2.06-1.56-3.46c0-0.92,0.27-1.79,0.8-2.61
			c0.53-0.82,1.34-1.46,2.41-1.93c1.07-0.47,2.54-0.7,4.41-0.7c2.29,0,4.03,0.43,5.24,1.28c1.2,0.85,1.92,2.21,2.14,4.07l-5.21,0.31
			c-0.14-0.81-0.43-1.4-0.87-1.77c-0.44-0.37-1.06-0.55-1.84-0.55c-0.64,0-1.13,0.14-1.45,0.41c-0.33,0.27-0.49,0.6-0.49,1
			c0,0.28,0.13,0.54,0.4,0.77c0.26,0.24,0.87,0.46,1.85,0.66c2.42,0.52,4.15,1.05,5.2,1.58c1.05,0.53,1.81,1.2,2.28,1.99
			c0.48,0.79,0.71,1.68,0.71,2.65C353.88,420.72,353.57,421.78,352.93,422.75z M362.41,436.27c0,0.3-0.23,0.54-0.52,0.54h-4.52
			c-0.29,0-0.52-0.24-0.52-0.54v-2.55c0-0.3,0.23-0.54,0.52-0.54h4.52c0.29,0,0.52,0.24,0.52,0.54V436.27z M362.44,425.41h-5.56
			v-17.92h5.56V425.41z"/>
	</g>
</g>
</svg>
